<?xml version="1.0" encoding="utf-8"?>
<!-- Generator: Adobe Illustrator 19.2.1, SVG Export Plug-In . SVG Version: 6.00 Build 0)  -->
<svg version="1.1" id="Layer_1" xmlns="http://www.w3.org/2000/svg" xmlns:xlink="http://www.w3.org/1999/xlink" x="0px" y="0px"
	 viewBox="0 0 425.2 424.6" style="enable-background:new 0 0 425.2 424.6;" xml:space="preserve">
<g>
	<path d="M425.2,0.8h-0.7V0H0.5v0.8H0v423.8h0.6v0.6h424v-0.6h0.6V0.8z M398.1,398.1h-371v-371h371V398.1z"/>
	<g>
		<path d="M76.3,214.7l3.6-55h76.5v19.5h-55.8l-1.8,22.7l1.2,0.2c5.9-5.2,9.2-6.1,19.2-6.1H133c10.1,0,15.4,1.7,19.5,5.8
			c5.3,5.3,7.3,13.6,7.3,27.5c0,18.4-2.1,24.8-7.4,30.4c-3.6,3.8-9.2,5.9-18.6,5.9h-32.4c-9.7,0-16.3-1.7-20-5.1
			c-4.8-5-7-11.9-7-28.9l23.7-0.2c0.2,8.6,1.4,11.9,2.6,13c1.2,1.3,3.3,1.8,8.2,1.8h16.5c4.1,0,6-0.6,7.2-1.7
			c1.4-1.4,2.6-4.5,2.6-13.9c0-9.4-1.2-12.4-2.6-13.8c-1.2-1.1-3-1.7-7.2-1.7h-10.6c-7.1,0-11.5,1.5-18,5.6L76.3,214.7z"/>
		<path d="M222.5,159.7c11.7,0,17.2,1.4,21.8,5.6c6.2,5.6,11.3,16.6,11.3,47.3c0,30.5-5.1,41.6-11.3,47.3
			c-4.5,4.1-10.1,5.6-21.8,5.6h-24.6c-11.7,0-17.1-1.5-21.6-5.6c-6.3-5.7-11.3-16.8-11.3-47.3c0-30.7,5-41.7,11.3-47.3
			c4.5-4.2,10-5.6,21.6-5.6H222.5z M203.3,179.2c-5.6,0-7.4,0.6-8.6,1.7c-1.7,1.5-4.1,5.6-4.1,31.8c0,26.2,2.4,30.2,4.1,31.6
			c1.2,1.2,3,1.7,8.6,1.7h13.8c5.7,0,7.4-0.5,8.8-1.7c1.7-1.4,4.1-5.4,4.1-31.6c0-26.2-2.4-30.2-4.1-31.8c-1.4-1.1-3-1.7-8.8-1.7
			H203.3z"/>
		<path d="M317.6,159.7c11.7,0,17.2,1.4,21.8,5.6c6.2,5.6,11.3,16.6,11.3,47.3c0,30.5-5.1,41.6-11.3,47.3
			c-4.5,4.1-10.1,5.6-21.8,5.6H293c-11.7,0-17.1-1.5-21.6-5.6c-6.3-5.7-11.3-16.8-11.3-47.3c0-30.7,5-41.7,11.3-47.3
			c4.5-4.2,10-5.6,21.6-5.6H317.6z M298.4,179.2c-5.6,0-7.4,0.6-8.6,1.7c-1.7,1.5-4.1,5.6-4.1,31.8c0,26.2,2.4,30.2,4.1,31.6
			c1.2,1.2,3,1.7,8.6,1.7h13.8c5.7,0,7.4-0.5,8.7-1.7c1.7-1.4,4.1-5.4,4.1-31.6c0-26.2-2.4-30.2-4.1-31.8c-1.3-1.1-3-1.7-8.7-1.7
			H298.4z"/>
	</g>
</g>
</svg>
