<svg xmlns="http://www.w3.org/2000/svg" width="80" height="80" viewBox="0 0 80 80">
    <path fill="#FFF" fill-rule="evenodd" d="M5.096 74.908h69.801V5.096h-69.8v69.812zM80 .188v79.719c-.19.03-.378.09-.567.09-26.289.004-52.577.004-78.866 0-.189 0-.378-.06-.567-.09V.187C.202.124.404.007.606.007c26.26-.01 52.52-.01 78.779 0 .205 0 .41.117.615.18zM61.259 40.002l-.138-.008c0-.888.044-1.78-.013-2.664a19.534 19.534 0 0 0-.343-2.586c-.152-.754-.513-1.016-1.266-1.026a135.355 135.355 0 0 0-3.971-.002c-.952.014-1.263.259-1.446 1.206-.473 2.442-.391 4.914-.299 7.38.034.898.127 1.801.288 2.685.186 1.025.541 1.279 1.574 1.289 1.188.011 2.377.01 3.566 0 1.094-.009 1.512-.303 1.638-1.38.191-1.624.279-3.262.41-4.894m-3.813-10.005c1.44.063 2.885.086 4.321.2 1.37.108 2.325.898 2.968 2.08.598 1.1.84 2.309.99 3.534.306 2.535.289 5.078.084 7.618-.101 1.257-.323 2.499-.795 3.683-.712 1.786-2.035 2.734-3.939 2.77-2.42.046-4.844.05-7.265 0-2.04-.042-3.41-1.052-4.025-3.07a16.92 16.92 0 0 1-.718-3.88c-.119-1.963-.08-3.94-.014-5.909.047-1.395.276-2.779.792-4.095.713-1.818 2.033-2.782 3.99-2.823 1.202-.025 2.406-.004 3.609-.004l.002-.104M43.362 40.031l-.105-.008c0-.51.035-1.025-.007-1.534-.1-1.254-.19-2.513-.376-3.756-.11-.73-.506-1-1.228-1.014a96.992 96.992 0 0 0-3.832-.01c-1.219.028-1.514.308-1.7 1.519-.373 2.451-.302 4.918-.21 7.382.026.733.11 1.468.22 2.194.172 1.14.565 1.467 1.706 1.475 1.158.008 2.315.008 3.472 0 1.115-.01 1.542-.313 1.667-1.403.185-1.608.267-3.23.393-4.845zm-3.82 9.946c-1.396-.053-2.796-.063-4.188-.17-1.531-.117-2.57-.992-3.218-2.354-.543-1.14-.76-2.367-.895-3.61-.25-2.296-.249-4.597-.08-6.898.101-1.38.29-2.748.806-4.047.714-1.796 2.03-2.765 3.966-2.789 2.391-.03 4.783-.038 7.174 0 2.08.034 3.448.997 4.082 2.985.375 1.175.654 2.42.72 3.649.114 2.16.08 4.33.014 6.494a11.57 11.57 0 0 1-.78 3.822c-.716 1.856-2.08 2.778-4.035 2.833-1.187.033-2.376.006-3.564.006l-.002.079zm-25.525-6.395h4.413c.056.52.092 1.027.169 1.53.129.848.402 1.156 1.253 1.18 1.471.042 2.946.023 4.417-.011.602-.014.888-.27 1.01-.85a10.06 10.06 0 0 0 .006-4.075c-.092-.458-.375-.795-.838-.827-1.454-.1-2.92-.224-4.353.125-.557.136-1.068.46-1.605.687-.142.06-.32.14-.452.104-1.21-.34-2.413-.706-3.648-1.072l.674-10.293h14.328v3.606h-.536c-3.145 0-6.29.007-9.435-.008-.398-.002-.538.092-.558.516-.054 1.141-.172 2.28-.255 3.42-.01.123.042.25.064.376.13-.051.286-.072.386-.157a3.682 3.682 0 0 1 2.435-.926c1.593-.013 3.192-.04 4.78.07 1.952.137 3.101 1.171 3.486 3.123a16.43 16.43 0 0 1-.067 6.812c-.403 1.804-1.76 2.934-3.604 2.97-2.708.054-5.418.063-8.125-.003-2.302-.054-3.53-1.294-3.773-3.65-.088-.863-.114-1.733-.172-2.647z"/>
</svg>
