<svg xmlns="http://www.w3.org/2000/svg" width="100" height="100" viewBox="0 0 100 100">
    <path fill="#000" fill-rule="evenodd" d="M81.285 65.404c-8.185 0-14.818-6.315-14.818-14.117 0-7.802 6.633-14.147 14.818-14.147 7.117 0 13.073 4.795 14.502 11.175h-5.233c-1.302-3.688-4.957-6.36-9.269-6.36-5.41 0-9.805 4.176-9.805 9.332 0 5.156 4.395 9.332 9.805 9.332 4.278 0 7.909-2.629 9.237-6.27h5.234c-1.467 6.327-7.389 11.055-14.471 11.055zm-31.634 0c-8.028 0-14.539-6.105-14.786-13.7h-.032V29.07h5.045v11.577c2.609-2.185 6.024-3.507 9.773-3.507 8.185 0 14.818 6.316 14.818 14.117 0 7.802-6.632 14.147-14.818 14.147zM33.122 51.287v14.057h-5.044v-3.447c-2.61 2.186-6.024 3.507-9.773 3.507-8.186 0-14.819-6.315-14.819-14.117 0-7.802 6.633-14.147 14.819-14.147 8.028 0 14.538 6.105 14.786 13.702h.032v.445zM50 3C22.386 3 0 24.054 0 50.025S22.386 97.05 50 97.05c27.615 0 50-21.055 50-47.026C100 24.055 77.615 3 50 3zM18.304 41.955c-5.41 0-9.805 4.176-9.805 9.332 0 5.156 4.396 9.332 9.805 9.332 5.41 0 9.774-4.176 9.774-9.332 0-5.156-4.364-9.332-9.774-9.332m31.347-.03c-5.41 0-9.773 4.176-9.773 9.333 0 5.155 4.364 9.331 9.773 9.331 5.41 0 9.805-4.176 9.805-9.331 0-5.157-4.395-9.333-9.805-9.333"/>
</svg>
