<svg xmlns="http://www.w3.org/2000/svg" xmlns:xlink="http://www.w3.org/1999/xlink" width="140" height="140" viewBox="0 0 140 140">
    <defs>
        <path id="a" d="M6.242.022C3.282.022.885 2.396.885 5.331c0 2.927 2.398 5.302 5.357 5.302h107.065c2.957 0 5.355-2.375 5.355-5.302-.003-2.935-2.4-5.309-5.352-5.309H6.242z"/>
        <path id="c" d="M57.558 1.14L4.044 25.38a5.395 5.395 0 0 0-3.038 6.045 5.36 5.36 0 0 0 5.233 4.256H113.31c2.96 0 5.352-2.412 5.352-5.389a5.389 5.389 0 0 0-3.617-5.098L61.947 1.14a5.337 5.337 0 0 0-4.39 0z"/>
    </defs>
    <g fill="none" fill-rule="evenodd">
        <g transform="translate(11 121.637)">
            <mask id="b" fill="#fff">
                <use xlink:href="#a"/>
            </mask>
            <path fill="#6BBDFF" d="M-3.544 15.063h126.636V-4.408H-3.544z" mask="url(#b)"/>
        </g>
        <path fill="#6BBDFF" d="M91.152 106.623h16.88V58.695h-16.88v47.928zm-56.276 0h16.88V58.695h-16.88v47.928zm33.547-20.105c0-1.382 1.187-2.499 2.65-2.499 1.471 0 2.659 1.117 2.659 2.499 0 .921-.542 1.728-1.33 2.162v2.773h-2.65V88.68c-.797-.434-1.329-1.24-1.329-2.162zm-.938-11.112c0-1.983 1.425-3.597 3.18-3.597 1.754 0 3.182 1.614 3.182 3.597v3.828h-6.362v-3.828zm53.209 31.217h-1.4V58.695h1.4a5.64 5.64 0 0 0 0-11.28h-98.48a5.631 5.631 0 0 0-5.626 5.636c0 3.119 2.516 5.644 5.626 5.644h1.41v47.928h-1.41c-1.56 0-2.96.629-3.977 1.648a5.63 5.63 0 0 0-1.65 3.987c0 3.12 2.517 5.645 5.627 5.645h98.48a5.64 5.64 0 0 0 0-11.28z"/>
        <g transform="translate(11 8.219)">
            <mask id="d" fill="#fff">
                <use xlink:href="#c"/>
            </mask>
            <path fill="#6BBDFF" d="M-3.544 40.112h126.636V-3.764H-3.544z" mask="url(#d)"/>
        </g>
        <path fill="#FFF" d="M85.816 82.66c0 7.929-6.428 14.357-14.358 14.357-7.93 0-14.358-6.428-14.358-14.358 0-7.93 6.429-14.358 14.358-14.358 7.93 0 14.358 6.429 14.358 14.358"/>
        <path fill="#6BBDFF" d="M73.81 79.762h-4.872v-2.93c0-1.519 1.092-2.754 2.435-2.754 1.344 0 2.436 1.235 2.436 2.753v2.931zm-1.107 7.23v2.125h-2.028v-2.124c-.611-.332-1.018-.95-1.018-1.655 0-1.058.909-1.913 2.029-1.913 1.125 0 2.034.855 2.034 1.913 0 .706-.413 1.323-1.017 1.655zm4.647-6.233v-3.01c0-3.216-2.646-5.835-5.895-5.835-3.25 0-5.895 2.619-5.895 5.834v3.011a2.066 2.066 0 0 0-1.656 2.021v6.669c0 1.146.93 2.069 2.084 2.069h10.935c.576 0 1.098-.23 1.479-.604.373-.374.61-.888.61-1.465V82.78c0-.997-.713-1.823-1.662-2.02z"/>
    </g>
</svg>
