<svg xmlns="http://www.w3.org/2000/svg" width="139" height="139" viewBox="0 0 139 139">
    <g fill="none" fill-rule="evenodd">
        <path fill="#7F70EC" d="M122.123 3.384c4.212 0 13.821 1.797 13.821 12.697v19.692h-29.689V3.384h15.868z"/>
        <path fill="#FFF" d="M122.123 3.384c4.212 0 13.821 1.797 13.821 12.697v19.692h-29.689V3.384h15.868z"/>
        <path fill="#6BBDFF" d="M108.286 33.786h25.628V16.004c0-2.494-.849-10.633-11.768-10.633h-13.86v28.415zm27.993 4.686H105.92a2.354 2.354 0 0 1-2.365-2.343v-33.1a2.354 2.354 0 0 1 2.365-2.344h16.225c1.69 0 6.042.26 9.933 2.666 2.995 1.852 6.564 5.55 6.564 12.653V36.13a2.354 2.354 0 0 1-2.364 2.343z"/>
        <path fill="#FFF" d="M3.727 118.594l-.035 17.043c3.318 0 3.318-4.874 6.636-4.874 3.317 0 3.317 4.874 6.635 4.874 3.316 0 3.316-4.874 6.632-4.874s3.316 4.874 6.633 4.874c3.315 0 3.315-4.874 6.63-4.874 3.316 0 3.316 4.874 6.63 4.874 3.315 0 3.315-4.874 6.63-4.874s3.315 4.874 6.63 4.874 3.315-4.874 6.63-4.874c3.316 0 3.316 4.874 6.632 4.874 3.315 0 3.315-4.874 6.63-4.874s3.315 4.874 6.63 4.874 3.315-4.874 6.63-4.874 3.315 4.874 6.63 4.874 3.315-4.874 6.63-4.874c3.313 0 3.313 4.874 6.627 4.874l.031-14.672c.048-22.447.12-56.118.214-101.012 0-9.636 5.829-16.569 12.417-16.569H16.92s-12.982.507-12.982 13l-.152 73.904"/>
        <path fill="#6BBDFF" d="M103.655 134.859c-.779-1.158-1.035-1.424-1.372-1.424-.338 0-.594.266-1.373 1.424-.932 1.384-2.34 3.477-5.223 3.477s-4.291-2.093-5.223-3.477c-.78-1.158-1.036-1.424-1.374-1.424-.337 0-.594.266-1.374 1.424-.931 1.384-2.34 3.477-5.222 3.477-2.883 0-4.291-2.093-5.223-3.477-.78-1.158-1.036-1.424-1.374-1.424-.338 0-.594.266-1.374 1.424-.932 1.384-2.34 3.477-5.223 3.477s-4.292-2.092-5.223-3.477c-.78-1.158-1.037-1.424-1.375-1.424-.338 0-.595.266-1.374 1.424-.932 1.384-2.34 3.477-5.223 3.477s-4.291-2.093-5.223-3.477c-.78-1.158-1.036-1.424-1.374-1.424-.338 0-.594.266-1.374 1.424-.931 1.384-2.34 3.477-5.222 3.477-2.883 0-4.291-2.093-5.222-3.477-.78-1.158-1.037-1.424-1.374-1.424-.338 0-.595.266-1.374 1.424-.932 1.384-2.34 3.477-5.224 3.477-2.883 0-4.292-2.092-5.224-3.477-.78-1.158-1.037-1.424-1.376-1.424-.338 0-.595.266-1.374 1.424-.932 1.385-2.341 3.477-5.224 3.477-2.884 0-4.293-2.092-5.225-3.476-.78-1.159-1.038-1.425-1.377-1.425-.34 0-.597.266-1.377 1.425-.932 1.384-2.341 3.476-5.225 3.476a2.317 2.317 0 0 1-1.644-.685A2.341 2.341 0 0 1 .992 136l.036-42.593 4.645.01-.024 37.516c.918-1.107 2.222-2.162 4.27-2.162 2.883 0 4.292 2.093 5.224 3.477.78 1.158 1.038 1.425 1.377 1.425.338 0 .596-.266 1.375-1.425.931-1.384 2.34-3.477 5.223-3.477 2.884 0 4.292 2.093 5.225 3.477.78 1.158 1.037 1.425 1.375 1.425.338 0 .595-.267 1.375-1.425.931-1.384 2.34-3.477 5.223-3.477s4.291 2.093 5.222 3.478c.78 1.158 1.036 1.424 1.374 1.424.338 0 .594-.266 1.373-1.424.932-1.385 2.34-3.478 5.223-3.478s4.29 2.093 5.223 3.477c.78 1.158 1.037 1.425 1.374 1.425.338 0 .595-.266 1.374-1.424.932-1.385 2.34-3.478 5.223-3.478s4.292 2.093 5.224 3.477c.779 1.159 1.036 1.425 1.374 1.425.338 0 .595-.266 1.375-1.425.931-1.384 2.34-3.477 5.222-3.477 2.883 0 4.292 2.093 5.223 3.478.78 1.158 1.036 1.424 1.374 1.424.337 0 .594-.266 1.373-1.424.932-1.385 2.34-3.478 5.223-3.478s4.291 2.093 5.223 3.477c.78 1.159 1.036 1.425 1.374 1.425.338 0 .594-.266 1.374-1.425.931-1.384 2.34-3.477 5.222-3.477 2.058 0 3.364 1.067 4.282 2.181l.233-111.277c0-5.773 1.896-10.869 4.945-14.325H16.537c-.31.021-2.989.232-5.565 1.625-3.425 1.852-5.09 4.834-5.09 9.115l-.15 77.317-4.646-.01.15-77.311c0-11.706 9.91-15.19 15.148-15.398.031-.002.061-.002.092-.002h105a2.327 2.327 0 0 1 2.323 2.332 2.327 2.327 0 0 1-2.323 2.332c-5.531 0-10.032 6.429-10.032 14.33l-.244 116.33a2.327 2.327 0 0 1-2.323 2.327"/>
        <path fill="#6BBDFF" d="M47.899 43.49c-1.431-.819-2.952-1.443-4.458-2.09-.874-.375-1.71-.812-2.448-1.42-1.454-1.203-1.174-3.154.527-3.926.483-.219.987-.289 1.499-.32 1.973-.11 3.848.265 5.633 1.154.889.446 1.182.305 1.484-.655.316-1.014.58-2.045.873-3.067.196-.687-.045-1.14-.67-1.428a13.936 13.936 0 0 0-3.555-1.1c-1.611-.258-1.611-.266-1.619-1.944-.007-2.364-.007-2.364-2.297-2.364-.331 0-.662-.008-.994 0-1.07.03-1.25.226-1.28 1.342-.015.5 0 .999-.008 1.506-.007 1.483-.015 1.46-1.385 1.975-3.314 1.248-5.362 3.59-5.58 7.335-.196 3.317 1.476 5.557 4.104 7.188 1.619 1.007 3.411 1.6 5.128 2.388.67.305 1.31.656 1.868 1.14 1.65 1.412 1.348 3.761-.61 4.65-1.047.477-2.154.594-3.291.445-1.755-.226-3.434-.701-5.015-1.552-.927-.5-1.198-.367-1.514.67a85 85 0 0 0-.753 2.709c-.324 1.217-.204 1.506.919 2.076 1.43.718 2.959 1.084 4.518 1.342 1.22.203 1.258.257 1.273 1.569.007.593.007 1.194.014 1.787.008.75.355 1.186 1.1 1.202.844.015 1.695.015 2.538-.008.693-.016 1.047-.406 1.047-1.132 0-.811.038-1.63.007-2.442-.037-.828.31-1.25 1.077-1.468a8.485 8.485 0 0 0 4.436-2.95c3.223-4.058 1.995-9.997-2.568-12.611M72.19 43.49c-1.43-.819-2.952-1.443-4.458-2.09-.874-.375-1.71-.812-2.448-1.42-1.454-1.203-1.174-3.154.528-3.926.481-.219.986-.289 1.498-.32 1.973-.11 3.848.265 5.633 1.154.889.446 1.183.305 1.484-.655.316-1.014.58-2.045.873-3.067.196-.687-.045-1.14-.67-1.428a13.938 13.938 0 0 0-3.554-1.1c-1.612-.258-1.612-.266-1.62-1.944-.007-2.364-.007-2.364-2.297-2.364-.331 0-.662-.008-.994 0-1.07.03-1.25.226-1.28 1.342-.015.5 0 .999-.007 1.506-.008 1.483-.015 1.46-1.386 1.975-3.314 1.248-5.362 3.59-5.58 7.335-.196 3.317 1.476 5.557 4.104 7.188 1.619 1.007 3.411 1.6 5.128 2.388.671.305 1.311.656 1.868 1.14 1.65 1.412 1.348 3.761-.61 4.65-1.047.477-2.154.594-3.291.445-1.755-.226-3.434-.701-5.016-1.552-.926-.5-1.197-.367-1.513.67a83.804 83.804 0 0 0-.753 2.709c-.324 1.217-.204 1.506.919 2.076 1.43.718 2.96 1.084 4.518 1.342 1.22.203 1.258.257 1.273 1.569.007.593.007 1.194.015 1.787.008.75.354 1.186 1.099 1.202.844.015 1.695.015 2.538-.008.693-.016 1.047-.406 1.047-1.132 0-.811.038-1.63.007-2.442-.037-.828.31-1.25 1.077-1.468a8.487 8.487 0 0 0 4.436-2.95c3.223-4.058 1.996-9.997-2.568-12.611M93.137 88.404H22.208c-1.282 0-2.322-.907-2.322-2.025 0-1.117 1.04-2.024 2.322-2.024h70.929c1.282 0 2.322.907 2.322 2.024 0 1.118-1.04 2.025-2.322 2.025M64.813 107.297h-42.62c-1.275 0-2.307-.906-2.307-2.024 0-1.119 1.032-2.025 2.306-2.025h42.62c1.275 0 2.307.906 2.307 2.025 0 1.118-1.032 2.024-2.306 2.024"/>
    </g>
</svg>
