<svg xmlns="http://www.w3.org/2000/svg" width="26" height="26" viewBox="0 0 26 26">
    <path fill="#000" fill-rule="evenodd" d="M24.255 18.858c0 1.65-1.29 2.992-2.877 2.992H4.632c-1.587 0-2.877-1.342-2.877-2.992V8.923c0-1.65 1.29-2.992 2.877-2.992h16.746c1.586 0 2.877 1.342 2.877 2.992v9.935zM21.378 4.631h-6.649l3.151-3.51a.668.668 0 0 0-.03-.919.607.607 0 0 0-.883.032L13.02 4.63h-.856l-1.51-2.555a.61.61 0 0 0-.86-.213.666.666 0 0 0-.205.895l1.108 1.873H4.632C2.352 4.63.505 6.552.505 8.923v9.935c0 2.37 1.847 4.292 4.127 4.292H6.13v2.093c0 .36.28.65.625.65s.625-.29.625-.65V23.15h11.25v2.093c0 .36.28.65.625.65s.625-.29.625-.65V23.15h1.498c2.28 0 4.127-1.922 4.127-4.292V8.923c0-2.37-1.848-4.292-4.127-4.292z"/>
</svg>
