<svg xmlns="http://www.w3.org/2000/svg" width="140" height="140" viewBox="0 0 140 140">
    <g fill="#6BBDFF" fill-rule="evenodd">
        <path d="M124.66 37.278L108.767 9.75c-.623-1.08-2.024-1.437-3.131-.798L12.39 62.787a7.012 7.012 0 0 0-3.276 4.497L2.166 96.406a11.081 11.081 0 0 0 7.649 13.247l28.627 8.429a7.01 7.01 0 0 0 5.533-.59l93.245-53.835c1.107-.639 1.497-2.03.875-3.11l-13.435-23.27-4.005 2.313 12.307 21.315-91.243 52.68a2.336 2.336 0 0 1-1.824.218l-28.738-8.623a6.648 6.648 0 0 1-4.58-7.933l6.955-29.153a2.337 2.337 0 0 1 1.1-1.47l91.224-52.668 14.799 25.634 4.005-2.312z"/>
        <path d="M29.621 89.783a4.645 4.645 0 1 1-8.045 4.646 4.645 4.645 0 0 1 8.045-4.646m-12.07 6.969a9.292 9.292 0 1 0 16.094-9.293 9.292 9.292 0 0 0-16.094 9.293M80.214 44.298a2.27 2.27 0 1 1 2.272 3.933 2.27 2.27 0 0 1-2.272-3.933m4.543 7.868a6.814 6.814 0 0 0 2.494-9.308 6.813 6.813 0 0 0-9.308-2.494 6.815 6.815 0 0 0 6.814 11.802M108.71 51.732a2.27 2.27 0 1 1 2.272 3.932 2.27 2.27 0 0 1-2.272-3.932m4.543 7.868a6.814 6.814 0 0 0 2.494-9.308 6.813 6.813 0 0 0-9.308-2.494 6.814 6.814 0 1 0 6.814 11.802M89.95 72.913a2.298 2.298 0 0 0 2.829-1.633l10.099-37.69a2.308 2.308 0 1 0-4.46-1.194l-10.1 37.69a2.299 2.299 0 0 0 1.633 2.827M45.886 67.314c2.223-1.284 5.05-.546 6.315 1.647.633 1.096 2.047 1.465 3.158.823 1.112-.642 1.499-2.05.866-3.146-2.092-3.618-6.398-5.344-10.47-4.198l-2.442-4.228c-.633-1.096-2.045-1.465-3.157-.823-1.112.641-1.5 2.05-.866 3.147l2.44 4.227c-3.328 3.267-3.73 8.453-.935 12.116 2.795 3.664 7.917 4.667 11.967 2.345 2.223-1.284 5.05-.546 6.315 1.646 1.266 2.193.492 5.01-1.731 6.293-2.222 1.283-5.05.546-6.316-1.647-.633-1.096-2.046-1.465-3.158-.823-1.11.641-1.498 2.05-.866 3.146 2.093 3.617 6.398 5.342 10.47 4.197l2.442 4.229c.633 1.096 2.047 1.465 3.158.823 1.112-.642 1.499-2.05.866-3.146L61.5 89.713c3.33-3.267 3.731-8.454.936-12.117-2.794-3.663-7.916-4.667-11.966-2.343-2.223 1.283-5.05.546-6.316-1.646-1.266-2.193-.49-5.01 1.732-6.293M63.26 46.048c-.627-1.086-2.095-1.413-3.281-.728-1.186.684-1.638 2.12-1.01 3.206l4.542 7.868c.627 1.086 2.097 1.412 3.282.728 1.186-.685 1.637-2.12 1.01-3.206l-4.543-7.868zM72.531 61.952c-.615-1.066-2.074-1.377-3.26-.692-1.185.684-1.647 2.104-1.031 3.17l3.345 5.794c.616 1.067 2.076 1.377 3.26.692 1.187-.684 1.647-2.103 1.032-3.17l-3.346-5.794zM76.704 74.888c-1.185.684-1.646 2.104-1.03 3.17l3.344 5.794c.616 1.067 2.076 1.377 3.262.693 1.186-.685 1.646-2.104 1.03-3.17l-3.345-5.794c-.616-1.067-2.075-1.378-3.26-.693"/>
    </g>
</svg>
