<svg xmlns="http://www.w3.org/2000/svg" width="100" height="100" viewBox="0 0 100 100">
    <path fill="#000" fill-rule="evenodd" d="M42.21 64.752c0 7.699.01 15.101-.01 22.503-.003 1.06-.046 2.139-.24 3.176-.967 5.16-5.017 8.994-10.238 9.425-2.09.173-4.307.077-6.328-.437-5.11-1.303-8.373-5.912-8.382-11.458-.022-12.625-.007-25.25-.007-37.876 0-12.513-.005-25.025.001-37.538C17.011 4.896 21.876.015 29.508.012c14.14-.008 28.28-.028 42.42.013 5.552.016 10.21 3.77 11.368 8.98 1.33 5.985-1.137 11.684-6.322 13.985-1.688.748-3.668 1.138-5.521 1.162-9.089.116-18.18.053-27.27.053h-1.886v16.402h1.949c6.228.007 12.457-.07 18.684.047 5.04.096 9.03 3.036 10.695 7.572 1.755 4.78.537 10.176-3.058 13.478-2.397 2.203-5.262 3.077-8.483 3.057-5.891-.036-11.783-.01-17.675-.009H42.21z"/>
</svg>
