<svg xmlns="http://www.w3.org/2000/svg" width="100" height="100" viewBox="0 0 100 100">
    <path fill="#000" fill-rule="evenodd" d="M84.07 98.673c-2.185-.754-4.482-1.135-6.577-2.214-7.629-3.926-11.555-11.992-9.779-20.258 1.646-7.66 9.212-13.93 17.278-14.318l.221-.008c7.722-.318 8.341.291 8.011 8.076-2.939-1.304-5.867-2.295-9.126-1.45-3.14.812-5.636 2.45-7.42 5.134-2.803 4.22-2.59 9.849.473 13.82 3.673 4.76 8.431 5.687 16.144 3.101v3.294c0 3.812 0 3.81-3.837 4.457-.343.058-.75-.04-.962.366H84.07zm-48.204-.463L14.243 78.44c-.738.465-.373 1.111-.376 1.617-.034 5.232-.078 10.465.016 15.695.025 1.403-.39 1.683-1.718 1.686-5.43.013-5.43.063-5.43-5.253V62.198l21.6 19.729c.713-.482.384-1.129.386-1.653.03-5.231.07-10.465-.017-15.695-.023-1.398.398-1.683 1.735-1.681 5.427.008 5.427-.043 5.427 5.269V98.21zm35.395-83.888c-4.876 11.285-9.796 22.551-14.977 34.455-.685-4.702-1.281-8.768-1.871-12.835-.845-5.815-1.596-11.645-2.563-17.44-.507-3.042.551-4.979 3.688-6.028-1.014-.776-1.884-.795-2.676-.667-2.022.325-2.18-.806-1.957-2.312.77-5.185 3.955-8.126 8.83-9.495h3.54c4.699 1.443 7.923 4.23 8.647 9.364a9.114 9.114 0 0 1-.661 4.958zm28.458 29.613c.035.121.185.21.281.313v3.54c-2.527 6.889-5.345 8.825-12.848 8.825H55.475c.185-.79.875-.971 1.353-1.295 8.639-5.85 17.29-11.679 25.945-17.505 7.015-4.722 14.578-1.982 16.946 6.122zm-83.602-6.783c9.407 6.295 18.773 12.65 28.15 18.99.08.056.1.206.22.47H12.867c-7.525 0-10.392-1.966-12.868-8.824v-3.54c1.43-4.723 4.223-7.962 9.38-8.638 2.437-.319 4.729.198 6.737 1.542zM40.382.367c5.441.787 9.35 5.983 8.574 11.445-1.728 12.156-3.474 24.31-5.283 36.95-2.302-5.275-4.434-10.147-6.554-15.024-2.808-6.455-5.723-12.868-8.379-19.386-2.536-6.227 1.408-13.05 7.87-13.985h3.772zm20.236 43.455c3.54-8.059 7.023-16.143 10.625-24.175 1.923-4.288 5.946-6.42 10.808-5.99 4.107.363 7.63 3.364 8.837 7.524 1.175 4.054-.096 8.693-3.546 11.082-10.15 7.025-20.417 13.882-30.642 20.799-.042.029-.136-.018-.168-.023 1.376-3.103 2.741-6.156 4.086-9.217zM13.261 32.758c-3.066-2.131-4.56-5.09-4.54-8.816.035-4.848 3.262-8.947 7.96-10.101 4.547-1.118 9.675.86 11.622 5.115 4.904 10.72 9.524 21.57 14.25 32.373.124.286.556.617.069.936-.6.394-.923-.185-1.31-.448-6.87-4.65-13.736-9.308-20.598-13.968-2.49-1.69-4.983-3.374-7.453-5.091zM58.39 88.54c.478-1.92-.007-3.614-1.486-4.996-1.362-1.271-3.025-1.266-4.734-1.255-5.065.03-5.065.01-5.065 4.914 0 5.1 0 5.109 5.13 5.08.873-.005 1.772-.021 2.613-.223 1.86-.447 3.082-1.673 3.543-3.52zm-6.798-20.379c-4.487-.026-4.487-.026-4.487 4.412 0 4.639 0 4.639 4.588 4.548 3.184-.063 5.22-1.77 5.263-4.414.044-2.672-2.145-4.527-5.364-4.546zm8.226 10.794c4.566 2.37 6.492 5.8 5.68 10.522-.687 4-3.142 6.518-7.03 7.623a7.357 7.357 0 0 1-1.95.28c-5.006.025-10.013-.021-15.018.048-1.248.018-1.61-.327-1.603-1.593.05-10.454.027-20.908.03-31.362 0-.776-.236-1.64 1.107-1.62 4.563.064 9.137-.12 13.688.12 4.003.21 7.299 1.934 8.601 6.058 1.263 3.996.31 7.408-3.505 9.924z"/>
</svg>
