<svg xmlns="http://www.w3.org/2000/svg" width="139" height="139" viewBox="0 0 139 139">
    <path fill="#6BBDFF" fill-rule="evenodd" d="M43.015 51.733h2.052c.695 0 1.285-.088 1.774-.264.488-.176.887-.42 1.2-.732.311-.311.538-.676.679-1.094.14-.417.21-.868.21-1.35 0-.967-.314-1.721-.942-2.264-.63-.544-1.603-.815-2.92-.815h-2.053v6.52zm0 3.517v8.134h-5.101V41.395h7.153c1.59 0 2.946.164 4.068.49 1.121.328 2.037.783 2.746 1.367.71.583 1.225 1.273 1.547 2.067.322.795.483 1.66.483 2.596 0 .715-.096 1.388-.287 2.022a6.123 6.123 0 0 1-.852 1.759 6.6 6.6 0 0 1-1.389 1.44c-.548.423-1.18.77-1.894 1.042.342.171.662.383.959.634.296.252.556.559.777.92l4.678 7.652h-4.618c-.855 0-1.469-.322-1.841-.966l-3.652-6.384c-.161-.281-.35-.482-.566-.603-.217-.121-.52-.181-.913-.181h-1.298zm15.423 8.134V41.395h5.132v21.99h-5.132zm21.46-17.521a1.9 1.9 0 0 1-.475.543c-.165.12-.379.18-.64.18-.232 0-.481-.072-.748-.218-.266-.145-.568-.31-.905-.49a7.54 7.54 0 0 0-1.155-.49 4.626 4.626 0 0 0-1.479-.22c-.956 0-1.667.204-2.135.612-.468.407-.702.958-.702 1.652 0 .443.14.81.422 1.102.282.292.652.543 1.11.754.458.212.98.406 1.57.581.588.177 1.189.373 1.803.59.613.215 1.215.47 1.803.761a6.02 6.02 0 0 1 1.57 1.117 5.216 5.216 0 0 1 1.109 1.652c.282.65.423 1.432.423 2.347a7.65 7.65 0 0 1-.529 2.853 6.682 6.682 0 0 1-1.532 2.316c-.669.66-1.493 1.177-2.475 1.555-.98.377-2.095.566-3.342.566-.685 0-1.381-.07-2.09-.212-.71-.14-1.397-.34-2.06-.596a11.924 11.924 0 0 1-1.872-.913 7.927 7.927 0 0 1-1.524-1.177l1.509-2.385c.11-.18.266-.326.468-.437.2-.11.417-.166.649-.166.301 0 .606.096.913.287.307.191.654.402 1.041.634.387.231.833.442 1.336.633.503.192 1.096.287 1.78.287.926 0 1.646-.204 2.159-.611.513-.408.77-1.054.77-1.94 0-.513-.141-.93-.423-1.252a3.267 3.267 0 0 0-1.11-.8 10.222 10.222 0 0 0-1.561-.558 45.89 45.89 0 0 1-1.796-.536 13.1 13.1 0 0 1-1.796-.725 5.663 5.663 0 0 1-1.562-1.131c-.458-.468-.828-1.052-1.11-1.751-.281-.7-.422-1.562-.422-2.588a6.232 6.232 0 0 1 1.962-4.512c.644-.614 1.433-1.105 2.37-1.472.935-.367 2.006-.551 3.214-.551.674 0 1.33.053 1.97.158.638.106 1.244.262 1.818.468.574.206 1.11.453 1.607.74.498.286.943.61 1.336.973l-1.268 2.37zm9.207 4.437h.815c.754 0 1.298-.237 1.63-.71l4.95-7.183c.272-.393.58-.66.928-.8.347-.141.772-.212 1.275-.212h4.437l-6.52 8.89a4.362 4.362 0 0 1-1.493 1.327c.382.142.731.335 1.048.581.317.247.607.577.868.99l6.64 10.201h-4.557c-.292 0-.541-.02-.747-.06-.206-.04-.385-.1-.536-.181a1.543 1.543 0 0 1-.392-.294 2.9 2.9 0 0 1-.317-.4l-4.98-7.652a1.503 1.503 0 0 0-.687-.596c-.277-.116-.652-.174-1.125-.174h-1.237v9.357h-5.101V41.395h5.101V50.3zm-38.71 27.316v3.924H41.37v5.569h7.515v3.939H41.37v8.557h-5.132V77.616h14.157zm7.757 10.338h2.052c.694 0 1.285-.088 1.774-.264.487-.176.887-.42 1.2-.732.311-.312.537-.676.678-1.094.141-.418.212-.868.212-1.35 0-.967-.315-1.721-.944-2.265-.628-.543-1.602-.815-2.92-.815h-2.052v6.52zm0 3.517v8.134H53.05V77.616h7.153c1.59 0 2.946.164 4.068.49 1.121.328 2.037.783 2.746 1.367.71.583 1.225 1.272 1.547 2.067.322.795.483 1.66.483 2.596 0 .714-.096 1.388-.287 2.022a6.123 6.123 0 0 1-.852 1.758 6.6 6.6 0 0 1-1.389 1.442c-.548.422-1.18.77-1.894 1.041.342.171.662.382.959.634.296.252.555.558.777.92l4.678 7.652h-4.618c-.855 0-1.47-.322-1.841-.966l-3.652-6.384c-.161-.281-.35-.482-.566-.603-.217-.121-.52-.181-.913-.181h-1.298zm29.127-13.855v3.924h-9.025v5.131h6.912v3.773h-6.912v5.237h9.025v3.924H73.123V77.616h14.156zm17.053 0v3.924h-9.025v5.131h6.913v3.773h-6.913v5.237h9.025v3.924H90.176V77.616h14.156zM69.5 139C31.116 139 0 107.884 0 69.5S31.116 0 69.5 0 139 31.116 139 69.5 107.884 139 69.5 139zm0-5.346c35.431 0 64.154-28.723 64.154-64.154S104.93 5.346 69.5 5.346 5.346 34.07 5.346 69.5 34.07 133.654 69.5 133.654z"/>
</svg>
