<svg xmlns="http://www.w3.org/2000/svg" xmlns:xlink="http://www.w3.org/1999/xlink" width="140" height="140" viewBox="0 0 140 140">
    <defs>
        <path id="a" d="M52.071 1.55C39.64 13.638 24.691 19.286 5.021 19.286c-2.673 0-4.72 2.042-4.72 4.709 0 3.296 0 6.59-.156 10.044-.63 32.956-1.574 78.151 53.656 97.142l1.575.313 1.573-.313c55.074-18.99 54.287-64.03 53.657-97.142-.157-3.455-.157-6.748-.157-10.044 0-2.667-2.044-4.709-4.72-4.709-19.67 0-34.62-5.648-47.05-17.734A4.88 4.88 0 0 0 55.376.256c-1.181 0-2.36.432-3.305 1.295z"/>
    </defs>
    <g fill="none" fill-rule="evenodd">
        <g transform="translate(14 4.207)">
            <mask id="b" fill="#fff">
                <use xlink:href="#a"/>
            </mask>
            <path fill="#6BBDFF" d="M-4.696 136.19h120.138V-4.44H-4.696z" mask="url(#b)"/>
        </g>
        <path fill="#FFF" d="M70.862 90.98c-6.536 0-12.294-3.4-15.687-8.367 0-5.233 10.46-8.109 15.687-8.109 5.226 0 15.686 2.876 15.686 8.109-3.393 4.967-9.15 8.367-15.686 8.367M70.862 53.85c4.443 0 7.844 3.4 7.844 7.842 0 4.444-3.401 7.844-7.844 7.844-4.444 0-7.845-3.4-7.845-7.844 0-4.442 3.401-7.842 7.845-7.842"/>
        <path fill="#FFF" d="M70.862 46.005c-14.385 0-26.147 11.763-26.147 26.147 0 14.38 11.762 26.148 26.147 26.148 14.383 0 26.146-11.768 26.146-26.148 0-14.384-11.763-26.147-26.146-26.147"/>
        <path fill="#6BBDFF" d="M70.862 74.504c-5.227 0-15.687 2.876-15.687 8.109 3.393 4.967 9.15 8.367 15.687 8.367 6.535 0 12.293-3.4 15.686-8.367 0-5.233-10.46-8.109-15.686-8.109M70.862 69.536c4.443 0 7.844-3.4 7.844-7.844 0-4.442-3.401-7.843-7.844-7.843-4.444 0-7.845 3.4-7.845 7.843 0 4.444 3.401 7.844 7.845 7.844"/>
    </g>
</svg>
