<svg xmlns="http://www.w3.org/2000/svg" width="100" height="100" viewBox="0 0 100 100">
    <path fill="#000" fill-rule="evenodd" d="M66.129 41.999l-.026-.024c-.017 4.773.006 9.548-.076 14.32-.024 1.386.55 1.767 1.892 1.76 10.36-.044 20.72-.042 31.081-.055v16H49.5l.025-32.025-.038.036.038-.036c-4.717.017-9.435.114-14.15.01-1.849-.04-2.34.538-2.325 2.27.083 9.32.05 18.643.041 27.964-.001.594-.141 1.187-.217 1.78H16.626c-.018-9.97-.071-19.942-.016-29.913.009-1.581-.422-2.124-2.104-2.095-4.834.084-9.67.017-14.506.01V26c.755.015 32.487.065 47.598.019 1.465-.005 1.985.359 1.954 1.826-.1 4.724-.062 9.452-.077 14.177l.012-.012-.012.012h16.679l-.025-.024-.026-.024L99 42V26c-10.238.016-20.476.075-30.713.009-1.833-.012-2.355.49-2.293 2.241.16 4.587.12 9.181.16 13.773l-.025-.024z"/>
</svg>
