<svg xmlns="http://www.w3.org/2000/svg" width="100" height="100" viewBox="0 0 100 100">
    <path fill="#000" fill-rule="evenodd" d="M86.358 88.442c.003-3.753-.002-7.505.003-11.258-1.662-.016-3.323-.002-4.985-.007.014-8.79-.03-17.579.021-26.366 1.653.033 3.306.008 4.96.012-.003-3.77.015-7.543-.009-11.315-8 .012-16 .003-24.003.005v-15.99h4.983c0-3.77.003-7.54-.002-11.31H41.054c-.007 3.77-.002 7.54-.002 11.31h4.663c.003 5.33.003 10.66 0 15.99-7.253-.014-14.51.033-21.76-.025.023-5.318.012-10.639.005-15.96 1.558-.015 3.117 0 4.676-.006V12.214c-8.774 0-17.548-.005-26.321.002-.002 3.768-.002 7.537 0 11.306 1.68.01 3.361-.022 5.041.018-.023 9.985-.029 19.974.003 29.96 2.593 2.11 5.166 4.241 7.742 6.37.196.142.384.368.663.32 3.643.004 7.287-.023 10.93.011-.017 5.66-.001 11.317-.009 16.974-1.678.01-3.354-.014-5.032.012.014 3.753-.003 7.505.008 11.257 8.778-.011 17.557.026 26.334-.018-.02-3.744-.018-7.487-.001-11.232a134.111 134.111 0 0 0-4.658-.001c-.045-2.462-.008-4.924-.02-7.384h21.429c.002 2.455.002 4.91 0 7.366-1.557.01-3.112-.012-4.668.01.01 3.754 0 7.506.005 11.257 8.76.005 17.517.004 26.276 0zm2.356-13.517c.005 5.228.002 10.459.002 15.687H57.742c-.043-5.228-.007-10.459-.016-15.687 1.555-.012 3.112.012 4.667-.012-.01-.95-.002-1.9-.006-2.85H45.672c.002.957-.01 1.912.01 2.869 1.561-.005 3.122-.035 4.68.015-.049 5.22-.007 10.444-.02 15.665H19.35c-.014-5.221.025-10.443-.02-15.663 1.664-.062 3.331-.006 4.997-.027-.004-4.178.02-8.357-.011-12.534-3.088.022-6.177-.002-9.265.013-.273.023-.542-.043-.741-.231-2.985-2.457-5.963-4.923-8.957-7.37-.174-.16-.417-.316-.366-.584.002-9.477-.015-18.952.01-28.428-1.667-.026-3.33-.005-4.996-.012V10h30.948c.002 5.258-.002 10.516.002 15.774-1.557.004-3.114 0-4.67.002v11.481c5.692.002 11.385.004 17.078-.002.003-3.825.001-7.651 0-11.48h-4.662c-.003-5.257-.002-10.517-.002-15.775h30.972c.045 5.258.009 10.518.02 15.776H64.66a7722.29 7722.29 0 0 0 0 11.48c8.016.003 16.032.003 24.048 0 .017 5.26.006 10.52.006 15.777-1.673.003-3.346.003-5.017 0-.02 7.155.002 14.31-.01 21.464.02.102.068.305.09.405 1.644.056 3.291 0 4.937.023zM4.53 14.335c7.296.003 14.593-.006 21.89.003-.009 2.354 0 4.708-.006 7.062-1.554.002-3.112-.002-4.667.002V50.78c1.655-.004 3.31.013 4.965-.01.045 2.43.009 4.862.018 7.292-3.471.002-6.942.004-10.412-.001-2.255-1.855-4.508-3.713-6.762-5.568.016-10.359-.011-20.715.013-31.074-1.677-.04-3.355-.012-5.033-.014-.013-2.357-.002-4.713-.006-7.07zm38.741 0h21.836c0 2.355.005 4.71-.004 7.065-1.658 0-3.317-.002-4.975.002.002 10.344-.013 20.689.007 31.033-2.039 1.808-4.157 3.535-6.218 5.32-.181.146-.372.346-.634.307-3.337.004-6.675.002-10.012 0 0-2.427-.007-4.856.004-7.282 1.546.008 3.093-.01 4.64.01.05-8.339.007-16.68.021-25.018-.021-1.46.042-2.924-.03-4.385-1.54.036-3.076-.006-4.615.024-.049-2.358-.007-4.717-.02-7.077zm19.02 27.322c6.417-.047 12.834-.007 19.252-.019.868.014 1.738-.033 2.606.026-.027 2.346-.001 4.691-.012 7.037-1.652-.005-3.303.016-4.952-.01-.056 10.204-.031 20.41-.012 30.616 1.654-.013 3.309-.003 4.964-.005v7.018c-7.28.002-14.557.002-21.836 0v-7.018c1.56-.018 3.123.033 4.681-.027-.04-3.861-.003-7.724-.018-11.586-8.623-.002-17.245-.002-25.866 0 0 3.87-.007 7.742.004 11.613 1.544-.008 3.088.014 4.632-.014.051 2.346.04 4.695.006 7.04-7.273-.019-14.544-.001-21.818-.008v-7.018c1.668-.022 3.339.04 5.004-.033-.065-10.193.03-20.39-.049-30.582-1.65.033-3.304.007-4.955.014v-7.063c7.28 0 14.56-.003 21.84.004-.002 2.352.005 4.706-.004 7.06-1.546-.006-3.094.011-4.64-.01-.049 3.816-.01 7.633-.02 11.449 8.621.001 17.245.003 25.866 0 .018-3.802-.03-7.604.024-11.403-1.559-.084-3.125-.011-4.687-.039-.01-2.347.011-4.694-.01-7.042zm-4.896 16.187c2.38-2.03 4.752-4.07 7.166-6.064.007 2.023.002 4.044.002 6.067-2.389-.002-4.78.004-7.168-.003zm34.308 29.301h3.083c-.002.274-.002.548-.002.825-.35 0-.696.006-1.044.008.004.878.002 1.755.002 2.634h-.993c0-.879-.004-1.756.003-2.633-.348-.003-.695-.009-1.042-.009a62.922 62.922 0 0 1-.007-.825zm3.627 0l1.618-.001c.243.53.464 1.069.685 1.61.348-.497.544-1.068.792-1.61l1.573.001c.002 1.157 0 2.311 0 3.467h-1c-.007-.879.02-1.76-.025-2.636-.388.606-.642 1.275-.954 1.917l-.764-.047c-.283-.68-.571-1.359-.96-1.99-.032.919-.008 1.838-.016 2.756h-.95v-3.467z"/>
</svg>
